<svg width="753" height="199" viewBox="0 0 753 199" fill="none" xmlns="http://www.w3.org/2000/svg">
<path fill-rule="evenodd" clip-rule="evenodd" d="M193.928 103.843C212.891 103.843 228.316 118.897 228.316 137.398C228.316 155.903 212.891 170.958 193.928 170.958C174.965 170.958 159.537 155.903 159.537 137.398C159.537 118.897 174.965 103.843 193.928 103.843M526.083 103.843C530.119 103.843 534.07 104.526 537.776 105.831L494.921 151.589C492.847 147.279 491.691 142.469 491.691 137.398C491.691 118.897 507.119 103.843 526.083 103.843M62.708 198.593C80.0175 198.593 96.1319 191.864 108.085 179.637L106.055 177.614L108.188 179.509L133.265 152.637C140.232 179.02 164.747 198.593 193.928 198.593C212.312 198.593 228.825 190.785 240.305 178.447L240.373 178.506L303.372 110.978C311.901 101.944 326.361 101.306 335.683 109.579C344.997 117.849 345.712 131.939 337.322 141.074L332.539 146.206L285.255 196.868H323.559L340.029 179.221V179.224L348.131 170.538L358.153 159.8L358.164 159.804C358.206 159.759 358.242 159.703 358.288 159.658L403.203 111.526C407.304 107.271 412.827 104.769 418.819 104.495C424.929 104.21 430.805 106.272 435.339 110.298C444.579 118.498 445.347 132.418 437.178 141.563L385.559 196.868H423.884L440.706 178.85L440.692 178.839L457.802 160.505L457.82 160.522C457.923 160.408 458.008 160.286 458.112 160.172L465.36 152.408C472.241 178.902 496.817 198.593 526.083 198.593C543.393 198.593 559.507 191.86 571.457 179.637L568.064 176.268L571.663 179.398L596.516 152.176C603.316 178.787 627.952 198.593 657.3 198.593V170.958C638.337 170.958 622.909 155.903 622.909 137.398V102.725H657.3V75.0897H622.909V27.7665H594.588V112.737L550.541 160.991C544.029 167.425 535.369 170.958 526.083 170.958C522.726 170.958 519.479 170.486 516.41 169.608L579.359 102.395L569.302 93.0632C557.594 82.1938 542.244 76.2072 526.083 76.2072C507.152 76.2072 490.195 84.4669 478.686 97.4499L478.501 97.2833L467.675 108.882C464.904 101.83 460.502 95.2774 454.399 89.8565C444.273 80.8646 431.146 76.2766 417.482 76.8874C404.867 77.4704 393.198 82.4887 384.225 91.0087L384.172 90.9601L384.222 91.0122C383.912 91.3072 383.607 91.6057 383.304 91.9076L383.251 91.859L382.501 92.6676L382.493 92.6607L382.134 93.0424C382.088 93.0945 382.031 93.1396 381.981 93.1917L381.992 93.1986L368.051 108.142C365.223 100.965 360.738 94.4618 354.742 89.1416C344.613 80.1462 331.504 75.5478 317.826 76.1725C304.4 76.7902 292.023 82.4054 282.855 91.9596L282.837 91.9423L282.471 92.3345C282.424 92.3865 282.371 92.4247 282.325 92.4767L282.332 92.4837L254.602 122.208C247.649 95.8049 223.124 76.2072 193.928 76.2072C174.787 76.2072 157.649 84.6404 146.136 97.8733L146.101 97.8421L123.641 121.906L123.638 121.903L100.041 147.189C100.041 147.189 100.041 147.192 100.044 147.196L87.2478 160.904L87.2514 160.907C80.7323 167.394 72.0367 170.958 62.708 170.958C43.7448 170.958 28.3203 155.903 28.3203 137.398C28.3203 118.897 43.7448 103.843 62.708 103.843C75.9666 103.843 88.1867 111.408 93.8416 123.121C93.9554 123.357 94.1154 123.704 94.2719 124.051L114.266 102.624C102.669 86.3305 83.3961 76.2072 62.708 76.2072C28.1318 76.2072 0 103.659 0 137.398C0 171.142 28.1318 198.593 62.708 198.593M717.434 22.971C720.603 27.6214 724.696 31.6159 729.462 34.7046C724.696 37.7934 720.603 41.7879 717.434 46.4418C714.269 41.7879 710.175 37.7934 705.409 34.7046C710.175 31.6159 714.269 27.6214 717.434 22.971M710.322 69.4093H724.548C724.548 54.1011 737.312 41.6456 753 41.6456V27.7637C737.312 27.7637 724.548 15.3082 724.548 0H710.322C710.322 15.3082 697.558 27.7637 681.87 27.7637V41.6456C697.558 41.6456 710.322 54.1011 710.322 69.4093" fill="#1E1E1E"/>
</svg>
